<svg data-icon-name="file-favorite-alt" data-style="line" icon_origin_id="18553" viewBox="0 0 24 24" xmlns="http://www.w3.org/2000/svg" data-name="Flat Line" id="file-favorite-alt" class="icon line" width="24" height="24"><path style="fill: rgb(246, 146, 30); stroke-width: 2; stroke: rgb(0, 0, 0);" d="M19.71,7.71,15.29,3.29a1,1,0,0,0-.7-.29H5A1,1,0,0,0,4,4V20a1,1,0,0,0,1,1H19a1,1,0,0,0,1-1V8.41A1,1,0,0,0,19.71,7.71Zm-4.34,5-.92.91L12,16,9.55,13.57l-.92-.91a2.14,2.14,0,0,1,0-3,2.17,2.17,0,0,1,3.06,0l.31.3.31-.3a2.17,2.17,0,0,1,3.06,0A2.14,2.14,0,0,1,15.37,12.66Z" id="secondary"></path><path style="fill: none; stroke: rgb(0, 0, 0); stroke-linecap: round; stroke-linejoin: round; stroke-width: 2;" d="M15.37,9.63a2.14,2.14,0,0,1,0,3l-.92.91L12,16,9.55,13.57l-.92-.91a2.14,2.14,0,0,1,0-3,2.17,2.17,0,0,1,3.06,0l.31.3.31-.3A2.17,2.17,0,0,1,15.37,9.63Zm4.34-1.92L15.29,3.29a1,1,0,0,0-.7-.29H5A1,1,0,0,0,4,4V20a1,1,0,0,0,1,1H19a1,1,0,0,0,1-1V8.41A1,1,0,0,0,19.71,7.71Z" id="primary"></path></svg>