<svg data-icon-name="world" data-style="line" icon_origin_id="17569" viewBox="0 0 24 24" xmlns="http://www.w3.org/2000/svg" data-name="Line Color" id="world" class="icon line" width="24" height="24"><circle style="fill: none; stroke: rgb(246, 153, 92); stroke-linecap: round; stroke-linejoin: round; stroke-width: 2;" r="9" cy="12" cx="12" id="primary"></circle><ellipse style="fill: none; stroke: rgb(246, 153, 92); stroke-linecap: round; stroke-linejoin: round; stroke-width: 2;" ry="9" rx="3" cy="12" cx="12" id="secondary"></ellipse><path style="fill: none; stroke: rgb(246, 153, 92); stroke-linecap: round; stroke-linejoin: round; stroke-width: 2;" d="M19.2,17.4a9.7,9.7,0,0,0-4.42-2.1,13,13,0,0,0-5.56,0A9.7,9.7,0,0,0,4.8,17.4" data-name="primary" id="primary-2"></path><path style="fill: none; stroke: rgb(246, 153, 92); stroke-linecap: round; stroke-linejoin: round; stroke-width: 2;" d="M19.2,6.6a9.7,9.7,0,0,1-4.42,2.1A12.53,12.53,0,0,1,12,9a12.53,12.53,0,0,1-2.78-.3A9.7,9.7,0,0,1,4.8,6.6" data-name="primary" id="primary-3"></path></svg>